<?xml version="1.0" encoding="utf-8"?>
<!-- Generator: Adobe Illustrator 22.0.1, SVG Export Plug-In . SVG Version: 6.00 Build 0)  -->
<svg version="1.1" id="Layer_1" xmlns="http://www.w3.org/2000/svg" xmlns:xlink="http://www.w3.org/1999/xlink" x="0px" y="0px"
	 viewBox="0 0 20.3 78.1" style="enable-background:new 0 0 20.3 78.1;" xml:space="preserve">
<path d="M13.5,21.5V6.1h0.6c0.3,0,0.5-0.2,0.5-0.5s-0.2-0.5-0.5-0.5h-0.6V3.6c0-0.3-0.2-0.5-0.5-0.5V0.5C13,0.2,12.8,0,12.5,0H7.8
	C7.5,0,7.3,0.2,7.3,0.5v2.6C7,3.1,6.8,3.3,6.8,3.6v1.5H6.2c-0.3,0-0.5,0.2-0.5,0.5s0.2,0.5,0.5,0.5h0.6v15.4c-1.3,0.7-6.8,4.1-6.8,9
	v47.1c0,0.3,0.2,0.5,0.5,0.5h19.3c0.3,0,0.5-0.2,0.5-0.5V30.5C20.3,25.6,14.8,22.3,13.5,21.5z M8.4,1h3.7v2.1H8.4V1z M7.9,4.1h4.6v1
	H7.9V4.1z M19.3,77.2H1.1V30.5c0-4.9,6.5-8.2,6.6-8.3C7.9,22.1,8,21.9,8,21.8V6.1h4.6v15.7c0,0.2,0.1,0.4,0.3,0.4
	c0.1,0,6.6,3.4,6.6,8.3v46.7C19.5,77.2,19.3,77.2,19.3,77.2z"/>
</svg>
