<?xml version="1.0" encoding="utf-8"?>
<!-- Generator: Adobe Illustrator 22.0.1, SVG Export Plug-In . SVG Version: 6.00 Build 0)  -->
<svg version="1.1" id="Layer_1" xmlns="http://www.w3.org/2000/svg" xmlns:xlink="http://www.w3.org/1999/xlink" x="0px" y="0px"
	 viewBox="0 0 32.1 68.4" style="enable-background:new 0 0 32.1 68.4;" xml:space="preserve">
<path d="M31.6,67.4h-15V39.9c5.1-0.4,15.5-6.3,15.5-15.8S28.2,0.5,28.2,0.4C28.1,0.2,27.9,0,27.7,0H4.4C4.2,0,4,0.1,3.9,0.4
	C3.9,0.5,0,14.6,0,24.1s10.4,15.4,15.5,15.8v27.5h-15c-0.3,0-0.5,0.2-0.5,0.5s0.2,0.5,0.5,0.5h31.1c0.3,0,0.5-0.2,0.5-0.5
	S31.9,67.4,31.6,67.4z M1.1,24.1C1.1,15.6,4.3,3.3,4.9,1h22.5c0.6,2.3,3.8,14.6,3.8,23.1c0,9.2-10.4,14.8-15,14.8
	C11.5,38.9,1.1,33.3,1.1,24.1z"/>
<path d="M28.1,16.1c-0.1-0.2-0.3-0.4-0.5-0.4H5.1c-0.2,0-0.4,0.2-0.5,0.4c-0.1,0.3-1.5,6.5-0.5,10.3c1.1,4.4,6.9,9.4,12,10.2h0.5
	h0.1c5-0.8,10.7-5.8,11.9-10.2C29.6,22.6,28.1,16.4,28.1,16.1z M27.6,26.1c-1,4-6.5,8.7-11.1,9.5h-0.4c-4.5-0.8-10-5.4-11-9.5
	c-0.8-3.1,0.1-8,0.4-9.4h21.7C27.5,18.2,28.4,23.1,27.6,26.1z"/>
</svg>
