<?xml version="1.0" encoding="utf-8"?>
<!-- Generator: Adobe Illustrator 22.0.1, SVG Export Plug-In . SVG Version: 6.00 Build 0)  -->
<svg version="1.1" id="Layer_1" xmlns="http://www.w3.org/2000/svg" xmlns:xlink="http://www.w3.org/1999/xlink" x="0px" y="0px"
	 viewBox="0 0 81.3 53" style="enable-background:new 0 0 81.3 53;" xml:space="preserve">
<g>
	<path d="M24.6,47.6c0.1,1.6,0.2,3.2,0.3,4.8c0,0.3,0.3,0.6,0.6,0.6c5.5,0.2,10.9-0.3,16.3-0.6c2.8-0.2,5.6,0.3,8.5-0.1
		c3.6-0.5,5.1-2.5,4.1-5.5c7.2-1.7,13-5.5,18.4-10.8c2.8-2.7,10.6-10.4,7.5-14.9c-0.2-0.4-0.6-0.6-1-0.8c1.9-2.1,2.9-5.6,0.7-7.8
		c-1.2-1.2-2.9-2-4.6-1.4c-0.3,0.1-3.1-4.8-4.2-5.5c-2.6-1.7-5,2.6-8,0c-1.6-1.3-2.6-2.7-4.8-2.7c-0.8,0-1.7,0.6-2.4,1
		c-0.9,0.6-1.8-1-2.5-1.6c-1.4-1.1-3.2-0.7-4.6,0c-0.1,0-1.3,1.4-1.7,1.1c-1.3-1.1-2.2-2.1-3.7-2.9c-1.6-0.9-3.8-0.4-5.1,0.7
		c-0.9,0.8-1.8,3.6-3.2,1.7c-0.6-0.8-0.9-0.9-1.8-1.2C31.8,1,29.8,1,28.5,2.3c-1.8,1.7-2.3,3.5-5.7,2.4c-1.2-0.4-2.5-1-3.8-0.8
		c-2.8,0.4-4.2,2-5.7,4.4c-2.4,3.8-6.9,1.3-9.9,3.7c-2.4,1.9-2.9,4.3-3.1,7.2v0.1C0,19.4-0.1,19.6,0,20
		C4.6,31.4,11.4,45.1,24.6,47.6z M42.5,51.2c-3.2-0.1-6.4,0.4-9.6,0.6c-1.8,0.1-3.7,0.1-5.5,0.1c-1.7,0-1.6-2.6-1.5-4.1
		c0.2,0,0.4,0.1,0.6,0.1c8.3,0.9,16.9,0.8,25.2-0.5c0.5-0.1,1.1-0.2,1.6-0.3C54.9,52.3,45.6,51.3,42.5,51.2z M78.8,26.1
		c-1.7,4-5,7.3-8,10.3c-4.9,4.8-10.7,7.6-16.9,9.2c-0.3-0.5-0.9-0.2-1.1,0.3c-7.6,1.7-15.7,1.6-23.6,1.1C14,45.9,6.9,33.2,1.6,20.6
		c6.6-2,14.8-1,21.6-0.9c8.5,0.1,16.8,1.3,25.3,1.8c3.6,0.2,7-0.6,10.6-0.9c4.2-0.4,8.5-0.1,12.7,0.1C75.4,20.9,81.2,20.5,78.8,26.1
		z M8.7,12.2c0.5,0.1,1.1,0.2,1.6,0.1c1.3-0.3,2.1-0.7,2.9-1.7c2.5-3.5,4-6.5,9.3-4.7c1,0.4,2.3,0.7,3.4,0.2c1.6-0.8,2.5-1.6,3.5-3
		c2.6-3.4,4.3,1.3,6.1,1.8c0.9,0.2,1.2,0.1,1.8-0.4c0.8-0.6,1.4-1.7,2-2.4c2.6-3,6.4,1.6,8,3c0.3,0.3,0.7,0.2,1-0.1
		c3.5-2,5.6-1.7,6.3,0.9c0.2,0.4,0.7,0.4,1,0.1c4.9-4.1,6,1.3,9.5,2.2c0.7,0.2,1.5-0.2,2.1-0.5c3.9-1.6,5.7,1.4,6.7,4.5
		c0.1,0.3,0.4,0.5,0.8,0.4c5.1-1.7,7,4.3,3.4,7.2c-0.6-0.1-1.2-0.2-1.8-0.2c-4.5-0.5-9.1-0.5-13.6-0.5c-5.3,0-10.5,1.3-15.8,1
		S36.4,18.9,31,18.6c-5.7-0.2-11.3,0-16.9,0c-4.3,0-8.5-0.4-12.6,0.8c0-0.1,0-0.1,0-0.2C1.7,15.1,3.2,11.3,8.7,12.2z"/>
	<path d="M16.8,13.1c0.2-0.3,0.4-0.6,0.6-0.9c0.5-0.6-0.4-1.5-0.9-0.9c-0.2,0.3-0.4,0.6-0.6,0.9C15.3,12.8,16.2,13.7,16.8,13.1z"/>
	<path d="M22.9,11.1c0.5-0.2,1-0.4,1.5-0.6c0.7-0.3,0.1-1.4-0.6-1.1c-0.5,0.2-1,0.4-1.5,0.6C21.5,10.4,22.1,11.5,22.9,11.1z"/>
	<path d="M24.9,15.7c0.8,0,0.8-1.2,0-1.2S24.1,15.7,24.9,15.7z"/>
	<path d="M30,13.6c0.1,0,0.2,0,0.3,0c0.8,0,0.8-1.2,0-1.2c-0.1,0-0.2,0-0.3,0C29.2,12.3,29.2,13.6,30,13.6z"/>
	<path d="M32.9,11.2c0.8,0,0.8-1.2,0-1.2S32.1,11.2,32.9,11.2z"/>
	<path d="M37.2,10.1c0.1-0.1,0.2-0.2,0.3-0.3c0.6-0.6-0.3-1.5-0.9-0.9c-0.1,0.1-0.2,0.2-0.3,0.3C35.8,9.8,36.7,10.7,37.2,10.1z"/>
	<path d="M42.7,10.6c0.7,0,1.4,0,2.1,0c0.8,0,0.8-1.2,0-1.2c-0.7,0-1.4,0-2.1,0C41.9,9.4,41.9,10.6,42.7,10.6z"/>
	<path d="M44.8,14.1c-0.8,0-0.8,1.2,0,1.2c0.1,0,0.2,0,0.3,0c0.8,0,0.8-1.2,0-1.2C45,14.1,44.9,14.1,44.8,14.1z"/>
	<path d="M46.8,12.9c0,0.1,0.1,0.1,0.1,0.2c0,0.3,0.5,0.5,0.8,0.4c0.4-0.1,0.5-0.4,0.4-0.8c0-0.1-0.1-0.3-0.1-0.4
		c0.1-0.1,0.2-0.1,0.3-0.2c0.6-0.5-0.3-1.4-0.9-0.9c-0.1,0.1-0.2,0.1-0.3,0.1c-0.3-0.1-0.5,0.1-0.7,0.3c-0.1,0-0.2,0.1-0.2,0.2
		C45.6,12.4,46.2,13.1,46.8,12.9z"/>
	<path d="M52.3,11.2c1.3,0.3,2.7,0.3,4,0.3c0.8,0,0.8-1.2,0-1.2c-1.2,0-2.5,0-3.7-0.3C51.9,9.8,51.5,11.1,52.3,11.2z"/>
	<path d="M60.2,15.6c-0.5,0-1,0-1.5,0c-0.8,0-0.8,1.2,0,1.2c0.5,0,1,0,1.5,0C61,16.9,61,15.6,60.2,15.6z"/>
	<path d="M53.7,14.4c-0.3,0.7-0.4,1.4-0.4,2.1c0,0.8,1.2,0.8,1.2,0c0-0.5,0-1,0.2-1.5C55.1,14.3,54.1,13.7,53.7,14.4z"/>
	<path d="M57.8,14.2c0.4,0,0.7-0.2,1-0.3c0.4,0.1,0.8-0.1,0.8-0.6v-0.1c0.1-0.2,0-0.5-0.2-0.6c-0.1-0.1-0.1-0.2-0.2-0.3
		c-0.5-0.5-1.2,0.1-1,0.6c-0.1,0-0.2,0.1-0.3,0.1C57,13,57,14.3,57.8,14.2z"/>
	<path d="M60.2,11.8c0.4,0,0.8,0,1.2,0c0.8,0,0.8-1.2,0-1.2c-0.4,0-0.8,0-1.2,0C59.4,10.6,59.4,11.8,60.2,11.8z"/>
	<path d="M64.6,12.3c0.5,0.2,1,0.4,1.4,0.8c0.6,0.5,1.5-0.3,0.9-0.9c-0.5-0.4-1-0.7-1.6-1C64.5,10.9,63.9,12,64.6,12.3z"/>
	<path d="M67.4,15c0.2,0.5,1.2,0.4,1.2-0.3c0-0.6-0.3-0.9-0.9-0.9C66.9,13.8,66.8,14.8,67.4,15z"/>
	<path d="M64.4,15.3c0-0.6,0.6-0.7,1-0.9c0.8-0.3,0.4-1.5-0.3-1.2c-1,0.4-1.9,0.9-1.9,2.1C63.1,16.1,64.4,16.1,64.4,15.3z"/>
	<path d="M26.4,35.5c-5.4,0.1-10.7-5.2-12.1-10.2c-0.2-0.8-1.4-0.4-1.2,0.3c1.6,5.5,7.3,11.2,13.4,11.1
		C27.2,36.7,27.2,35.5,26.4,35.5z"/>
	<path d="M63.6,34.2c-2.4,2.6-5.6,4.2-8.9,5.5C54,40,54.3,41.2,55,40.9c3.5-1.3,6.9-3,9.5-5.8C65,34.5,64.2,33.6,63.6,34.2z"/>
</g>
</svg>
