<?xml version="1.0" encoding="utf-8"?>
<!-- Generator: Adobe Illustrator 22.0.1, SVG Export Plug-In . SVG Version: 6.00 Build 0)  -->
<svg version="1.1" id="Layer_1" xmlns="http://www.w3.org/2000/svg" xmlns:xlink="http://www.w3.org/1999/xlink" x="0px" y="0px"
	 viewBox="0 0 89.8 97" style="enable-background:new 0 0 89.8 97;" xml:space="preserve">
<g>
	<path d="M19.4,96c-0.3,0-0.7,0-1-0.1c-2.1-0.4-6.2-2.2-7.6-3.6c-1.3-1.3-2-3-2.7-4.7c-0.3-0.7-0.6-1.5-1-2.2l0,0
		C5.8,82.9,0.4,80,0.4,80l-0.2-0.1l-0.1-0.2c-0.6-2.3,1.6-4,3.2-5.3c3.5-2.8,6-6.8,8.5-10.6c2.8-4.4,5.8-9,10.3-11.9
		c1.3-0.8,2.6-1.5,3.9-2.1c1.9-0.9,3.8-1.8,5.3-3.2c3.6-3.1,4.9-7.7,6.2-12.6c1.1-4,2.2-8.2,4.8-11.5c2.4-3.1,5.8-5.2,9.1-7.2
		c0.6-0.3,1.1-0.7,1.7-1c3.6-2.2,7.4-5,8.9-9.2c0.1-0.2,0.2-0.5,0.3-0.7c0.6-1.9,1.4-4,3.4-4.4c0.8-0.1,1.5,0,2.3,0.3
		C73.8,2,79.4,4.4,84.5,7.5c0.7,0.4,1.4,0.9,1.9,1.7c0.5,0.9,0.4,1.9,0.3,2.7c-0.6,4.4-3.4,8.8-8.4,13.2c-1.1,1-2.3,2-3.5,2.9
		c-2.8,2.3-5.7,4.7-7.9,7.5c-2.2,2.8-3.7,6.1-4.5,9.6c-0.4,1.7-0.6,3.6-0.8,5.3c-0.3,3.1-0.7,6.3-2,9.1C57,65.2,50.9,68,45,70.8
		c-5.3,2.5-10.8,5.1-13.6,9.7c-0.7,1.2-1.4,2.6-2,3.9c-1.3,2.7-2.6,5.5-4.9,7.3c-0.9,0.7-1.4,1.5-1.9,2.2C21.8,95,21.1,96,19.4,96z
		 M1.1,79.2c1.1,0.6,5.6,3.2,6.9,5.7l0,0c0.4,0.8,0.7,1.6,1,2.3c0.7,1.6,1.3,3.2,2.4,4.3c1.3,1.3,5.2,3,7,3.3
		c1.9,0.3,2.3-0.3,3.2-1.6c0.5-0.7,1.1-1.6,2.1-2.4c2.1-1.7,3.4-4.4,4.6-7c0.6-1.4,1.3-2.8,2.1-4c3-4.9,8.6-7.5,14.1-10.1
		c6-2.8,11.6-5.5,14-10.8c1.3-2.7,1.6-5.7,1.9-8.8c0.2-1.8,0.4-3.6,0.8-5.4c0.8-3.6,2.4-7.1,4.7-10c2.3-3,5.2-5.4,8.1-7.7
		c1.2-0.9,2.3-1.9,3.5-2.9c4.8-4.3,7.5-8.4,8.1-12.6c0.1-0.6,0.1-1.4-0.2-2c-0.3-0.5-0.9-0.9-1.5-1.2c-5-2.9-10.5-5.3-16.2-7
		C67,1.1,66.4,1,65.9,1.1c-1.4,0.3-2,2-2.6,3.6C63.2,5,63.1,5.2,63,5.5c-1.6,4.5-5.6,7.4-9.3,9.7c-0.5,0.3-1.1,0.7-1.7,1
		c-3.2,1.9-6.6,3.9-8.8,6.9c-2.4,3.1-3.5,7.2-4.6,11.1c-1.3,4.9-2.7,9.9-6.6,13.2c-1.7,1.4-3.7,2.4-5.6,3.3c-1.3,0.6-2.6,1.3-3.8,2
		c-4.3,2.8-7,7.1-9.9,11.6c-2.5,3.9-5,7.9-8.7,10.8C2.6,76.3,0.9,77.7,1.1,79.2z"/>
</g>
<g>
	<path d="M7.1,84.5l-0.7-0.9c4.2-2.9,7.1-7.5,10-12s6-9.2,10.3-12.3c1.2-0.8,2.5-1.5,3.7-2.2c1-0.6,2.1-1.2,3.1-1.8
		C41,50.4,45,41.9,47.7,35c0.2-0.6,0.5-1.2,0.7-1.9c1.8-4.6,3.6-9.3,7.1-12.9c1.6-1.7,3.5-3,5.4-4.3c0.6-0.4,1.2-0.9,1.8-1.3
		C67.6,11,71.2,7,73.3,2.8l1,0.5c-2.2,4.4-5.9,8.5-10.9,12.2c-0.6,0.4-1.2,0.9-1.8,1.3c-1.8,1.3-3.7,2.6-5.2,4.2
		c-3.3,3.4-5.1,8.1-6.8,12.6c-0.2,0.6-0.5,1.2-0.7,1.9c-2.8,7-6.9,15.6-14.6,20.8c-1,0.7-2.1,1.3-3.1,1.9c-1.2,0.7-2.5,1.4-3.6,2.2
		c-4.1,2.9-7.1,7.5-10,12C14.4,76.8,11.4,81.5,7.1,84.5z"/>
</g>
<g>
	<path d="M11,91.7L10.1,91c0.6-0.9,1.2-1.8,1.8-2.7c5.5-8,11.1-16.3,18.9-21.6c1.1-0.7,2.2-1.4,3.3-2.1c1.8-1.1,3.7-2.2,5.3-3.6
		c5.7-4.6,8.8-11.1,12.2-17.9c2.4-4.9,4.9-10,8.3-14.3c2.8-3.4,6.1-6.2,9.4-9c1.8-1.5,3.6-3.1,5.3-4.7c1.3-1.2,5.6-5.6,4.5-9.7
		l1-0.3c1.2,4.5-3,9-4.8,10.7c-1.7,1.6-3.6,3.2-5.4,4.7c-3.2,2.7-6.6,5.5-9.3,8.8c-3.4,4.2-5.8,9.2-8.2,14.1
		C49.2,50.1,45.8,57,40,61.7c-1.7,1.4-3.6,2.5-5.4,3.7c-1.1,0.7-2.2,1.3-3.3,2.1C23.8,72.9,18.2,81.1,12.8,89
		C12.2,89.9,11.6,90.8,11,91.7z"/>
</g>
<g>
	<ellipse transform="matrix(0.9284 -0.3715 0.3715 0.9284 -17.4721 14.1913)" cx="28.1" cy="52.4" rx="3.1" ry="0.8"/>
</g>
<g>
	<ellipse transform="matrix(0.9284 -0.3715 0.3715 0.9284 -17.1974 16.2192)" cx="33.5" cy="52.7" rx="2" ry="0.5"/>
</g>
<g>
	<ellipse transform="matrix(0.6836 -0.7298 0.7298 0.6836 -55.6722 42.6287)" cx="21.3" cy="85.5" rx="2.4" ry="0.7"/>
</g>
<g>
	<ellipse transform="matrix(0.6836 -0.7298 0.7298 0.6836 -58.0574 39.9624)" cx="17.1" cy="86.9" rx="1.6" ry="0.5"/>
</g>
<g>
	<ellipse transform="matrix(0.6836 -0.7298 0.7298 0.6836 -50.5405 41.089)" cx="22.1" cy="78.8" rx="1.6" ry="0.5"/>
</g>
<g>
	<ellipse transform="matrix(0.7206 -0.6933 0.6933 0.7206 0.261 55.6752)" cx="69.2" cy="27.5" rx="2.4" ry="0.7"/>
</g>
<g>
	<ellipse transform="matrix(0.7206 -0.6933 0.6933 0.7206 3.8533 55.4407)" cx="70.7" cy="22.9" rx="1.6" ry="0.7"/>
</g>
<g>
	<path d="M22.4,97c-0.3,0-0.7,0-1-0.1c-0.8-0.1-2-0.5-3.3-1.1l-4.8-2l5.1,1V95l0.1-0.2l0,0l0,0c1.9,0.3,2.3-0.3,3.2-1.6
		c0.5-0.7,1.1-1.6,2.1-2.4c2.1-1.7,3.4-4.4,4.6-7c0.6-1.4,1.3-2.8,2.1-4c3-4.9,8.6-7.5,14.1-10.1c6-2.8,11.6-5.5,14-10.8
		c1.3-2.7,1.6-5.7,1.9-8.8c0.2-1.8,0.4-3.6,0.8-5.4c0.8-3.6,2.4-7.1,4.7-10c2.3-3,5.2-5.4,8.1-7.7c1.2-0.9,2.3-1.9,3.5-2.9
		c4.8-4.3,7.5-8.4,8.1-12.6c0.1-0.6,0.1-1.4-0.2-2C85.2,9,84.6,8.6,84,8.3C80.1,6,76,4.1,71.7,2.5l0.3-1c5.4,1.7,10.6,4,15.5,6.9
		c0.7,0.4,1.4,0.9,1.9,1.7l0,0c0.5,0.9,0.4,1.9,0.3,2.7c-0.6,4.4-3.4,8.8-8.4,13.2c-1.1,1-2.3,2-3.5,2.9c-2.8,2.3-5.7,4.7-7.9,7.5
		c-2.2,2.8-3.7,6.1-4.5,9.6c-0.4,1.7-0.6,3.6-0.8,5.3c-0.3,3.1-0.7,6.3-2,9.1C60,66.1,53.9,68.9,48,71.7c-5.3,2.5-10.8,5.1-13.6,9.7
		c-0.7,1.2-1.4,2.6-2,3.9c-1.3,2.7-2.6,5.5-4.9,7.3c-0.9,0.7-1.4,1.5-1.9,2.2C24.8,96,24.1,97,22.4,97z M20.8,95.7
		c0.2,0.1,0.5,0.1,0.7,0.1c1.9,0.3,2.3-0.3,3.2-1.6c0.5-0.7,1.1-1.6,2.1-2.4c2.1-1.7,3.4-4.4,4.6-7c0.6-1.4,1.3-2.8,2.1-4
		c3-4.9,8.6-7.5,14.1-10.1c6-2.8,11.6-5.5,14-10.8c1.3-2.7,1.6-5.7,1.9-8.8c0.2-1.8,0.4-3.6,0.8-5.4c0.8-3.6,2.4-7.1,4.7-10
		c2.3-3,5.2-5.4,8.1-7.7c1.2-0.9,2.3-1.9,3.5-2.9c4.8-4.3,7.5-8.4,8.1-12.6c0.1-0.6,0.1-1.4-0.2-2l0,0C88.2,10,87.6,9.6,87,9.3
		c-0.2-0.1-0.4-0.3-0.7-0.4c0,0,0,0.1,0.1,0.1c0.5,0.9,0.4,1.9,0.3,2.7c-0.6,4.4-3.4,8.8-8.4,13.2c-1.1,1-2.3,2-3.5,2.9
		c-2.8,2.3-5.7,4.7-7.9,7.5c-2.2,2.8-3.7,6.1-4.5,9.6c-0.4,1.7-0.6,3.6-0.8,5.3c-0.3,3.1-0.7,6.3-2,9.1C57,65,50.9,67.8,45,70.6
		c-5.3,2.5-10.8,5.1-13.6,9.7c-0.7,1.2-1.4,2.6-2,3.9c-1.3,2.7-2.6,5.5-4.9,7.3c-0.9,0.7-1.4,1.5-1.9,2.2
		C22.1,94.7,21.6,95.3,20.8,95.7z"/>
</g>
</svg>
