<?xml version="1.0" encoding="utf-8"?>
<!-- Generator: Adobe Illustrator 22.0.1, SVG Export Plug-In . SVG Version: 6.00 Build 0)  -->
<svg version="1.1" id="Layer_1" xmlns="http://www.w3.org/2000/svg" xmlns:xlink="http://www.w3.org/1999/xlink" x="0px" y="0px"
	 viewBox="0 0 64 81" style="enable-background:new 0 0 64 81;" xml:space="preserve">
<g>
	<path d="M29.5,78.6c2.2-1.7,1.9-3.6,4.6-1.4c1.5,1.3,3.4,1.9,5.3,2.2c4.2,0.7,8.4-2.1,11.5-4.6c12.9-10.1,18.7-38.3,5.8-50.4
		c-7.5-7.1-18.8-3.5-25.5,2.8c0.7-2.8,1.1-5.7,1.3-8.5c0.2,0.2,0.4,0.3,0.6,0.2C40.4,16.8,43.7,6.8,52,8c0.5,0.1,1-0.4,0.7-0.9
		c-2.5-3.7-6-7-10.7-4.6c-2.6,1.3-4.8,3.2-7,5.1c-1.7,1.5-1.4,1.5-1.8-0.7c-0.4-2.2-1-4.4-1.6-6.5c-0.2-0.8-1.3-0.4-1.2,0.3
		c1.2,8.4,1.4,16.4-0.2,24.6c-2.7-5-12-7.4-16.8-6.4C6.3,20.3,2.7,26.3,1,32.9c-3.7,14.6,3.3,32.6,13.3,43.4
		C18.6,81,24.3,82.7,29.5,78.6z M32.9,10.8c5.9-4.4,12.1-11.9,18-4.2C48.4,6.5,46,7.2,44,8.9c-1.4,1.2-10,10.3-10.8,7.7
		c-0.1-0.3-0.3-0.4-0.5-0.4c0.1-1.8,0.1-3.5,0.1-5.3C32.8,10.9,32.9,10.9,32.9,10.8z M5.1,26.2c2.3-3.9,6.1-6.1,10.5-6.3
		c4.2-0.2,13.8,2.7,14.1,7.8c0,0.6,0.9,0.8,1.2,0.3c0.2,0.3,0.6,0.5,1,0.2C37.4,23,45,20,52.4,23.1c7.9,3.4,9.7,12.9,9.8,20.4
		c0.1,7.6-1.8,15.2-5.3,21.9c-4.5,8.5-15.7,17.8-24.2,8.7c-0.3-0.3-0.8-0.2-1,0.1C18.4,92.1,4.8,60.6,2.2,49.8
		C0.4,42.1,1.1,33,5.1,26.2z"/>
</g>
</svg>
