<?xml version="1.0" encoding="utf-8"?>
<!-- Generator: Adobe Illustrator 22.0.1, SVG Export Plug-In . SVG Version: 6.00 Build 0)  -->
<svg version="1.1" id="Layer_1" xmlns="http://www.w3.org/2000/svg" xmlns:xlink="http://www.w3.org/1999/xlink" x="0px" y="0px"
	 viewBox="0 0 81 78.2" style="enable-background:new 0 0 81 78.2;" xml:space="preserve">
<g>
	<path d="M6,51.6c1.3,1.3,3.5,1.8,5.2,2.3c3.3,0.9,6.5,2,9.7,3.2c6.9,2.6,13.3,5,20.6,6.5c5.7,1.2,10,5.9,15.8,7.1
		c6.8,1.5,13,3.9,19.4,6.6c1.1,0.4,4.1,1.9,4.3-0.5c0.1-1.1-0.2-1.9-0.9-2.8c-2.7-3.3-5.5-6-3.4-10.6c1.3-2.8,4-5.5,3.5-8.8
		c-0.7-4.6-3.4-8.9-5.7-12.8c-2.8-4.6-6.9-8.4-10.5-12.4c-3.1-3.5-3.9-6.8-4.7-11.2c-0.4-2-0.7-3.3-2.3-4.5C51.1,8.8,52-0.6,42.4,0
		C31.5,0.7,20.6,9,12.2,15.3c-3.6,2.7-6.5,6.1-9,9.7c-0.3-0.1-0.7,0-0.9,0.4c-0.7,1.9-2.2,3.7-2.3,5.8c-0.2,3.1,0.9,5.7,1.8,8.6
		C3.1,43.8,2.8,48.4,6,51.6z M30.3,5.2C35,2.8,42.4-0.6,47.6,2.1c3.2,1.6,3.7,6.8,5.6,9.7c0.6,0.9,1.5,1.6,2.3,2.3
		c3,2.3,2.7,5.6,3.1,9c0.6,4.3,5.2,8.1,7.9,11.1c4.9,5.2,13,14.4,11.9,22.4c-5.4-1-10.6-3.1-15.8-5c-6.9-2.6-13.8-5-20.6-7.7
		c-7-2.8-13.8-6.1-21-8.3c-3.9-1.2-7.7-2.3-11.5-4c-2.4-1.1-4.5-2.5-7-3.3c0.1-0.2,0.2-0.5,0.3-0.7c0.1,0,0.2-0.1,0.3-0.2
		C9.9,17.4,19.9,10.6,30.3,5.2z M2.1,29.3C7.9,31.2,13,34.5,19,36.2c7.2,2.1,14,5.2,20.9,8s13.9,5.4,21,7.9c5.7,2,11.3,4.5,17.3,5.6
		c-0.2,0.9-0.6,1.7-1.1,2.6c-1.5,2.6-2.9,4.7-2.5,7.9c0.2,1.2,0.8,2.5,1.5,3.5c0.5,0.7,5.2,6.1,1.8,4.9c-4.5-1.5-8.7-3.7-13.3-5.2
		c-2.8-0.9-5.7-1.5-8.6-2.2c-3.2-0.7-6.1-2.8-8.8-4.4c-4.2-2.5-9-3-13.6-4.2c-6-1.5-11.4-4.4-17.3-6.4c-2.9-1-6-1.5-8.7-2.9
		c-2.9-1.5-3.3-5.4-3.8-8.2c-0.5-2.4-1.2-4.7-2-7.1C1,33.5,1.4,31.4,2.1,29.3z"/>
	<path d="M42.6,17.9c2,1.2,6.6-0.1,6.5-2.9c0-1.4-1.5-2.5-2.5-3.3c-0.9-0.8-3.6-2.2-3.7-3.5c0-0.5-0.6-0.7-0.9-0.6
		c-1.9-0.6-2.8,1.3-2.9,3.2C39.2,13.4,40.3,16.5,42.6,17.9z M42,9c0.6,1.6,2.7,2.7,3.9,3.7c0.8,0.6,2.1,1.5,2.1,2.6
		c0,1.2-2.5,1.9-3.4,1.9c-2.3,0.1-3.4-2.7-3.8-4.5C40.5,11.7,40.1,8.1,42,9z"/>
	<path d="M19.2,30.7c2.2,1.8,5.6,1.4,7.9,0.1c2.6-1.5,2.7-4.3,0.9-6.5c-0.2-0.3-0.7-0.2-0.9,0c-0.9,0.8-2.1,1.2-3.3,0.7
		s-1.2-1.7-0.5-2.6c0.2-0.2,0.2-0.5,0.1-0.7c0.1-0.3,0.1-0.6-0.2-0.8C17.8,17.5,15.7,27.7,19.2,30.7z M22.4,21.8
		c-0.9,1.2-1,2.9,0.4,3.9c1.5,1.1,3.3,0.9,4.8-0.1c2.6,4.1-4.8,6.4-7.6,4C17.5,27.7,18.7,20,22.4,21.8z"/>
	<path d="M43.6,28.1c-0.4,0.3-0.3,0.8,0,1.1c-3.2,2.5,0.5,8.9,4.7,6.9C53,33.8,48.3,24.6,43.6,28.1z M48.2,34.6
		c-2.6,2.8-7-3.5-3.1-4.8c0.5-0.2,0.5-0.8,0.2-1.1C48,28.1,50.1,32.5,48.2,34.6z"/>
	<path d="M48.9,57.6c-1.4,3.9,5,7.4,6.6,3c1.5-4.2-4.7-7.1-7.4-3.9C47.6,57.3,48.4,58.1,48.9,57.6z M54.5,59.4
		c-0.1,3.8-5.7,1.5-4.4-1.4c0.2-0.4-0.1-0.8-0.4-0.9C51.5,56,54.6,57.1,54.5,59.4z"/>
	<path d="M23.4,50.4c0.9,2.5,4.1,2.6,6,1.2c3.6-2.7-0.7-10.9-4.6-8.2c-0.1,0-0.2,0.1-0.2,0.2l0,0c-0.1,0-0.1,0.1-0.2,0.1
		c-0.1,0.1-0.2,0.3-0.2,0.4C23.1,45.9,22.7,48.5,23.4,50.4z M28.3,50.8c-1.8,1.1-3.7,0.4-4-1.7c-0.2-1.5,0.2-3.3,1.1-4.6
		C28,42.6,31.2,49.1,28.3,50.8z"/>
</g>
</svg>
