<?xml version="1.0" encoding="utf-8"?>
<!-- Generator: Adobe Illustrator 22.0.1, SVG Export Plug-In . SVG Version: 6.00 Build 0)  -->
<svg version="1.1" id="Layer_1" xmlns="http://www.w3.org/2000/svg" xmlns:xlink="http://www.w3.org/1999/xlink" x="0px" y="0px"
	 viewBox="0 0 56.1 81" style="enable-background:new 0 0 56.1 81;" xml:space="preserve">
<g>
	<path d="M23.1,80.8c4.9,0.5,8.9-0.7,13.5-2c4.8-1.3,9-2.6,12.4-6.2c6.9-7.3,7.4-19.4,7-28.8c-0.4-10.9-3.4-21.1-9.4-30.2
		C43.3,8.3,35.3-1.3,28,0.1c-0.1,0-0.3,0-0.4,0c-0.2,0.1-0.3,0.1-0.4,0.2c-0.2,0-0.3,0.1-0.4,0.1c-0.1,0-0.2,0.1-0.2,0.2
		C11.2,7.7,2.4,25.7,0.4,41.9C-1.7,58,3.7,78.9,23.1,80.8z M2.2,38.4C5.3,23.4,13.1,8,27.5,1.5c4.9-1.4,10.2,3.7,13.3,6.7
		c3.2,3.2,5.7,7.1,7.8,11.1c4.7,8.7,6.1,18.4,6.3,28.1c0.2,9.4-1.6,21.4-10,27.1c-3.3,2.2-7.8,2.8-11.6,4c-4.9,1.5-9.5,1.6-14.4,0.1
		C1.9,73.4-0.9,53.4,2.2,38.4z"/>
</g>
</svg>
