<?xml version="1.0" encoding="utf-8"?>
<!-- Generator: Adobe Illustrator 22.0.1, SVG Export Plug-In . SVG Version: 6.00 Build 0)  -->
<svg version="1.1" id="Layer_1" xmlns="http://www.w3.org/2000/svg" xmlns:xlink="http://www.w3.org/1999/xlink" x="0px" y="0px"
	 viewBox="0 0 81.2 60.3" style="enable-background:new 0 0 81.2 60.3;" xml:space="preserve">
<g>
	<path d="M60.7,17.6c-7.4-1.2-12.6-3.7-18.5-8.4c-3.3-2.7-6.5-6-10.5-7.6C24.3-1.5,15.4,0,9.3,5C3.4,9.9-0.2,18.8,0.5,26.8
		C0.2,26.8,0,27,0,27.4C-0.1,37.8,6.6,49.7,15.7,55c8.1,4.7,19.4,5.1,28.6,5.3c8.3,0.2,16.9-0.8,24.4-4.4c3.1-1.5,6.1-3.8,8.1-6.6
		c3.1-4.4,3.2-8.7,4.2-13.8c0.1-0.3-0.1-0.5-0.2-0.6c0.2-1,0.4-2,0.4-3.1C81.5,21.4,68.5,18.8,60.7,17.6z M11.6,4.8
		C17.9,0.1,27.5,0.2,34,4.2c7.1,4.5,12.1,11.1,20.5,13.4c8.8,2.4,22.1,1.3,25.3,12.3c0.5,1.8,0.6,3.5,0.3,5C80,35,80,35.1,79.9,35.2
		c-0.1,0.3-0.1,0.6-0.2,0.9c-2.5,7.5-13.8,11.6-20.4,13c-14.8,3.1-38.9,7.7-47.2-9c-0.1-0.2-0.3-0.3-0.4-0.3
		C-3.5,33.5,0.5,13.1,11.6,4.8z M76.9,47.1c-1.9,3.5-5.3,6-8.8,7.8c-6.8,3.6-15.1,4.2-22.7,4.2c-8.1,0-16.6-0.8-24.4-3.1
		C11,52.9,3.3,42.1,1.6,31.7c1.4,3.9,4.2,7.1,8.7,9c0.2,0.1,0.5,0.2,0.7,0.3c4.2,8.3,12.2,11.5,21.2,12.1
		c10.3,0.7,21.7-1.2,31.7-3.8c6-1.6,12.2-5,15.4-10.4C78.8,41.7,78.3,44.4,76.9,47.1z"/>
	<path d="M20,14.4c0.4,0,0.7,0,1.1,0.1c0,0,0,0.1,0.1,0.1c2,2.6,4.3,4.9,6.3,7.6c3.6,4.8,0.5,9-3.2,12.5c-0.5,0.5,0.1,1.3,0.8,1
		c9.1-5.5,18.2-4.4,28.3-4.9c0.7,0,0.8-1,0.2-1.2c-3.9-1.5-8-1.9-12.1-2.7c-4-0.8-6.9-3.1-9.7-5.9c-3.4-3.4-6.5-7.5-11.7-7.6
		C19.2,13.1,19.2,14.4,20,14.4z M34.4,25c4.2,3.4,9.9,3.4,15.1,4.6c-7.7,0.2-14.7,0.1-21.8,3.2c1.8-2.1,3-4.5,2.5-7.6
		c-0.6-3.7-4.4-7.2-7.1-10.1C27.6,17,30.8,22.1,34.4,25z"/>
	<path d="M61.6,41.1c6.2-2.5,12.6-7.1,8.9-14.5c-0.4-0.7-1.4-0.1-1.1,0.6c3.3,6.5-2.8,10.5-8.1,12.6C60.5,40.2,60.8,41.4,61.6,41.1z
		"/>
</g>
</svg>
