<?xml version="1.0" encoding="utf-8"?>
<!-- Generator: Adobe Illustrator 22.0.1, SVG Export Plug-In . SVG Version: 6.00 Build 0)  -->
<svg version="1.1" id="Layer_1" xmlns="http://www.w3.org/2000/svg" xmlns:xlink="http://www.w3.org/1999/xlink" x="0px" y="0px"
	 viewBox="0 0 81.3 59" style="enable-background:new 0 0 81.3 59;" xml:space="preserve">
<g>
	<path d="M12.4,22.9c1,1.1,1.9,1.9,2.6,2.9c-0.1,0.1-0.1,0.1-0.1,0.2c-2.4,5.2-6.3,14.5-3.6,20.3c2.4,5.2,8.3,7.2,13.6,8l0,0
		c0.7,0.5,1.4,0.9,2.1,1.4c6.1,3.8,11.7,4.7,16.2,0.7l0,0c12.2-0.9,24.7,0.6,35-7.4c2.5-1.9,3.7-4.5,2.6-7.5s-3.6-4.6-4.3-7.9
		c-0.6-3-0.8-5.6-2.2-8.4c-4.7-9.5-16.2-14.3-26.2-14.4c-3.9,0-8.3,0.5-12.4,1.6c0.1-0.2,0.1-0.4-0.1-0.6c-1.8-2.3-4.4-4.1-5.2-7
		C30.1,3.6,31,1.9,30,0.9c-2.4-2.4-4.3,0.8-5.1,3C23.2,2.7,20.5,3.2,21,6c0.3,1.6,0.9,2.9,2.5,3.5c0.9,0.3,1.7,0.5,2.6,0.6
		c0.5,0,1.3,1.5,1.8,2.6c0,0.1-0.1,0.2,0,0.4c0.2,0.8,0.8,1.5,1.6,1.8c-3.2,1.5-6,3.6-8.2,6.1c-3.6-4-6.6-6.3-6.5-12
		c0.1-2.9-1-4.7-3.8-5.6C8.6,2.6,7.1,5.9,6.4,7.5c-0.8,2-4.4,0.4-6,2.3c-1.2,1.4,0.3,4.2,1.5,5.1c1.3,1,2.5,1.4,4.1,1.7
		C10.3,17.6,10,20.4,12.4,22.9z M12.7,46.6c-3.2-4.9,0.5-14.3,2.8-19.4c0.2,0.8,0.2,1.8-0.1,3.1c-0.6,2.4-1.3,4.6-1.4,7.1
		c-0.2,6.5,3.6,11.4,8.4,15.1C18.6,51.6,15,50,12.7,46.6z M30.1,13.7c-0.3-0.1-0.5-0.2-0.7-0.4c0-0.1,0-0.3,0-0.4
		c-0.6-1.3-1.5-2.5-2.1-3.9c-0.2-0.2-0.4-0.3-0.6-0.3c-0.8,0-1.5,0-2.3-0.2c-1.1-0.3-1.8-1-2.1-2.2c1-1.8,1.8-2.1,2.4-0.9
		c0.3,0.4,0.9,0.1,1-0.3c0.2-0.5,0.3-1,0.5-1.5c0.3-1,2.8-3.6,3-1.2c0,0.9-0.2,1.8,0,2.7c0.5,3.1,3.7,5.3,5.5,7.6l0,0
		c-1.4,0.4-2.8,1-4.2,1.6C30.5,14,30.4,13.8,30.1,13.7z M45.7,12.1c10.5-0.8,20.4,3.7,26.6,12.2c2.9,3.9,1.6,8.4,3.8,12.3
		c1.2,2.1,3,3.8,3.8,6.1c1.2,3.2-3.1,5.8-5.3,7.1c-9.3,5.6-19.9,4.6-30.3,5.2c0.6-0.8,1.3-1.6,1.8-2.6c4-6.8,2.1-15.5-2.6-21.4
		c-4.9-6.2-13.3-7.8-20.5-5.6c0-1.3-0.4-2.4-1.2-3.4C27.6,15.2,37.4,12.8,45.7,12.1z M5.3,15.2c-3.5-0.7-2.1-5.9,0.8-4.9
		c0.2,0.1,0.6,0,0.7-0.3C7.2,9,7.6,8.1,8,7.1c1.4-3.2,5.5-1.2,5.6,1.8c0.1,1.9-0.2,3.5,0.5,5.3c1,2.8,4.6,5,6.6,7.6
		c0,0.3,0.2,0.5,0.4,0.6c0.7,1,1,2.1,0.9,3.3c-0.4,0.3-0.3,0.9,0.1,1.1c0.3,0.3,0.9,0.3,1-0.2c10.4-3.4,20.7,2,23.6,12.7
		c1.6,5.9-0.4,12.1-4.6,16.4c-4.7,4.8-11.8,0.6-16.6-2.7c0-0.1-0.1-0.1-0.2-0.1c-0.4-0.3-0.8-0.6-1.2-0.8c-5.2-3.6-8.5-8.4-8.7-14.8
		c-0.1-3.2,3.1-8,1.7-11.1c-0.7-1.5-1.8-2.5-3-3.6c-1.6-1.5-1.9-4.2-3.6-5.5c-1-0.8-1.8-1.2-2.9-1.5C6.7,15.5,6,15.4,5.3,15.2z"/>
	<path d="M50.9,16.9c4.1,1.4,8,3.5,10.9,6.8c0.5,0.6,1.4-0.3,0.9-0.9c-3-3.5-7.2-5.6-11.4-7.1C50.5,15.4,50.2,16.6,50.9,16.9z"/>
	<path d="M68.9,47.8c2.6-1.5,4-4.3,4.9-7.1c0.2-0.8-1-1.1-1.2-0.3c-0.8,2.5-2,5-4.3,6.4C67.6,47.1,68.2,48.2,68.9,47.8z"/>
	<path d="M38.6,45.1c0.1,0.8,1.3,0.8,1.2,0c-0.3-3.8-1.9-7-3.5-10.3c-0.3-0.7-1.4-0.1-1.1,0.6C36.7,38.6,38.3,41.6,38.6,45.1z"/>
	<path d="M38.8,49c-0.2,1.1-0.7,2.1-1.6,2.8c-0.6,0.5,0.3,1.4,0.9,0.9c1-0.9,1.7-2.1,1.9-3.4C40.1,48.6,38.9,48.2,38.8,49z"/>
</g>
</svg>
