<?xml version="1.0" encoding="utf-8"?>
<!-- Generator: Adobe Illustrator 22.0.1, SVG Export Plug-In . SVG Version: 6.00 Build 0)  -->
<svg version="1.1" id="Layer_1" xmlns="http://www.w3.org/2000/svg" xmlns:xlink="http://www.w3.org/1999/xlink" x="0px" y="0px"
	 viewBox="0 0 81.2 75.6" style="enable-background:new 0 0 81.2 75.6;" xml:space="preserve">
<g>
	<path d="M36.5,40.2c-3.2-1.8-4.9-5.5-7.9-7.5c-1.9-1.3-4-2.1-6.2-2.8c-2.7-0.8-5.6-0.9-7.5,0.9c-0.2-0.2-0.4-0.3-0.7-0.1
		c-8.5,4.5-6.9,19.2-5.1,27c2.3,9.1,12,15.1,20.3,8.2c5.3-4.4,4.7-11.4,9.3-16.2C42.9,45.3,41.6,43,36.5,40.2z M37.8,48.8
		c-1.3,1.3-2.4,2.7-3.2,4.3c-2,3.9-1.8,7.7-5.2,11.1c-3.8,3.9-10.7,4.5-14.8,1c-2.8-2.4-3.9-6.5-4.6-9.9c-1.3-6.5-2.1-18.4,4-22.8
		c0,0,0,0.1-0.1,0.1c-0.3,0.7,0.9,1.1,1.2,0.3c2-4.8,9.6-1.1,12.3,0.5c3.3,1.9,5.4,5.7,8.5,7.9c0.8,0.4,1.5,0.8,2.3,1.3
		C39.9,45.3,39.8,47.3,37.8,48.8z"/>
	<path d="M52.4,6.8C47.2,5.6,41,5.5,36,7.8c-2.9,1.3-5.2,3-7.3,5.3c-3,3.2-5.8,5.4-9.5,7.6c-0.2,0.1-0.3,0.3-0.3,0.5
		c0,0.1,0,0.3,0.1,0.5c2.2,3.8,7.1,5.4,11.1,6.6c6.8,2.1,12.8-0.8,19.7-0.6c4.4,0.1,8.7,2,12.6,3.8c1.6,0.7,4,1.8,5.9,1.4
		c4.3-1,5.4-5.7,5.2-9.6C72.8,14,59.9,8.5,52.4,6.8z M72.2,25.3c-0.3,6.1-5.8,6.6-10.4,4.5c-3.9-1.7-7.8-3-12-3.4
		c-5.8-0.6-11.2,2.3-17,1.2c-4.1-0.7-9.9-2.5-12.5-6.2c3.2-1.9,5.6-3.6,8.2-6.4c4.6-5,9.5-7.5,16.3-7.8c9.3-0.4,20.7,4.3,25.9,12.2
		C71.9,21.2,72.3,23.3,72.2,25.3z"/>
	<path d="M60.4,35.4c-7-3.4-14.3-4-21.6-0.9c-0.2,0-0.3,0-0.5,0c-0.8,0-0.8,1.2,0,1.2c6.6,0.3,10.8,7,16.5,9.5
		c4.6,2,8.7-0.9,11.4-4.5C69.9,36,62.8,36.6,60.4,35.4z M63.2,42.2c-1.1,1.1-2.3,1.8-3.7,2.2c-6.3,2.1-12.2-7-18.6-9.4
		c7.1-2.5,13.7-1.1,20.4,2.2c1.2,0.6,2.1,0.6,3.4,0.6C67.5,37.8,63.4,42,63.2,42.2z"/>
	<path d="M56,0.4C44.9-1,31.9,1.8,21.9,6.7C12.3,11.4,5.6,21.2,2.1,31.1c-2,5.7-2.3,11.7-2,17.7c0.2,5.7,0.7,12.3,3.4,17.5
		c4.4,8.5,16.1,11.3,24.5,7.9c9.2-3.7,8.6-16.4,16-21.1c0.1,0,0.2,0,0.3-0.1c6.2-3.6,12.8,0.3,19.5-0.3c4.6-0.4,8.5-3.9,11.3-7.2
		c6.6-7.6,7.3-18.9,4.8-28.3C77.4,7.7,65,1.5,56,0.4z M71.3,47.5c-5.4,5-11.7,4.1-18.3,2.7c-2.6-0.6-4.8-0.4-7,0.5
		c-0.1,0-0.2,0-0.3,0C39.5,53,37.6,59.8,35,65.2c-5.3,11.3-19.9,11.4-28.2,3.4c-4.3-4.1-4.6-10.8-5.2-16.4c-0.6-6-0.5-12,0.9-17.9
		c2.4-10.4,9.6-20.4,18.8-25.9C30,3.3,41.4,1.5,51.4,1.2C62,1,76.2,7.8,79.1,18.8C81.7,29,79.2,40.3,71.3,47.5z"/>
	<path d="M29.4,54.9c1.2,4-5.3,6.6-8.4,6.2c-0.8-0.1-0.8,1.2,0,1.2c3.9,0.4,11-3,9.6-7.8C30.4,53.8,29.2,54.1,29.4,54.9z"/>
	<path d="M13.2,57.7c-0.4-0.7-1.5-0.1-1.1,0.6c0.8,1.3,1.8,2.4,2.9,3.4c0.6,0.5,1.5-0.4,0.9-0.9C14.9,60,13.9,59,13.2,57.7z"/>
	<path d="M50.1,10.7C48,10.7,46,10.9,44,11c-1.7,0.1-3.4-0.2-5.1,0.2c-2.9,0.6-5.5,1.7-7.1,4.3c-0.4,0.7,0.7,1.3,1.1,0.6
		c1.9-3,5.3-3.7,8.6-3.9c2.9-0.1,5.8-0.4,8.6-0.3C50.9,11.9,50.9,10.7,50.1,10.7z"/>
	<path d="M67,19.7c-0.6-0.5-1.5,0.4-0.9,0.9c2.2,1.8,1.7,4.1,0.7,6.4c-0.3,0.7,0.9,1.1,1.2,0.3C69.2,24.6,69.5,21.8,67,19.7z"/>
</g>
</svg>
