<?xml version="1.0" encoding="utf-8"?>
<!-- Generator: Adobe Illustrator 22.0.1, SVG Export Plug-In . SVG Version: 6.00 Build 0)  -->
<svg version="1.1" id="Layer_1" xmlns="http://www.w3.org/2000/svg" xmlns:xlink="http://www.w3.org/1999/xlink" x="0px" y="0px"
	 viewBox="0 0 81.6 64.3" style="enable-background:new 0 0 81.6 64.3;" xml:space="preserve">
<g>
	<path d="M28.5,53.6c0.5,3.3,1.3,6.6,1.6,10c0,0.4,0.5,0.9,0.9,0.5c1.4-1.1,2.1-2.1,2.8-3.8c1.8-4.6,6.1-1.9,9.6-1.5
		c0.3,0,0.6-0.3,0.6-0.6c0-2.2-1.3-4.4-2.8-6.6l0,0c6.3,0,10.9-7.1,13.8-11.9c0.6-1,1.2-2,1.7-3c3.6,4.2,6.6,8.9,10.5,13
		c3.1,3.3,8.8,5,12.9,2.5c3.7-2.2-0.2-7.8-1.9-9.8c-3.2-3.8-6.3-6.6-6.5-12c-0.2-5,4-9,7.3-12.2c0.3-0.3,0.2-0.7-0.1-0.9
		c0.1-0.2,0.1-0.4,0-0.5c-5.3-7.2-15,3.9-17.6,8c-1.9,3.1-3.3,6.4-4.9,9.6c-1.7-1.8-3.6-3.5-5.5-5.1c-7-5.8-15.3-9.7-24.4-10
		C18,18.9-4.7,27.7,0.9,39.8C5.2,48.9,19.3,52.5,28.5,53.6z M60.9,28.1c1.4-2.7,3-5.2,5-7.5c1-1.1,2.1-2,3.3-2.8
		c0.4-0.2,0.9-0.5,1.3-0.7c3.3-2.2,5.3-2,6,0.7c-0.5,0.3-0.3,0.9,0.1,1.1c-4.3,4.4-7.2,9.4-5.4,15.9c0.8,2.9,3.4,5.3,5.4,7.4
		c1.6,1.8,2.9,3.5,3.6,5.8c1.9,6.3-8.2,3.4-10,2.3c-4-2.2-6.2-7.1-8.9-10.6c-1.2-1.5-2.5-3-3.8-4.4C58.6,33,59.7,30.6,60.9,28.1z
		 M1.7,34.8c0.8-4.3,4.4-7.4,8.6-9.6c0.1,0.1,0.2,0.2,0.4,0.2c6.7,0.6,12.9,11.5,8,17c-0.5,0.6,0.3,1.5,0.9,0.9
		c5.4-6-0.4-17.1-7.6-18.9c3.4-1.6,7-2.6,9.8-3.4c10.5-2.8,21.8,3.9,29.5,10.2c1.7,1.4,3.1,2.9,4.5,4.4c-0.6,1.2-1.2,2.3-1.9,3.4
		c-2.6,4.3-7,11.3-12.7,11.3c-0.3,0-0.5,0.2-0.6,0.5c-2.4-3.5-4.9-6.9-2.8-10.1c0.5-0.7-0.6-1.3-1.1-0.6c-3.3,4.9,1.9,9.2,4.5,13.1
		c1.4,2.2,2.7,4.7-0.9,3.8c-1.5-0.4-2.9-0.8-4.4-0.8c-2.5,0-3.5,4-4.8,6c-0.6-4.5-1.8-8.8-2-13.3c0-0.8-1.3-0.8-1.2,0
		c0,1.2,0.2,2.4,0.3,3.5C19.6,51.2-0.5,46.2,1.7,34.8z"/>
	<path d="M7.4,38c0.3,2.1,2.3,2.7,4.2,2.4c2-0.4,3.4-2.1,2.5-4.1c-0.8-1.6-2.5-2.8-4.3-2.9c-0.1,0-0.2,0-0.3,0c-0.1,0-0.1,0-0.2,0
		c-0.4,0-0.5,0.3-0.6,0.6C7.6,35,7.2,36.5,7.4,38z M9.7,34.7c2.3,0.3,5,3.3,1.8,4.4c-1.4,0.5-2.6,0-2.9-1.4
		C8.4,36.6,8.9,35.4,9.7,34.7z"/>
	<path d="M28.6,29.8c0.4-0.3,0.7-0.6,0.8-1.1c0-0.4-0.2-0.6-0.2-1c0-0.7-1-0.8-1.2-0.2c-0.1-0.1-0.3-0.1-0.5-0.1
		c-1.2,0.2-0.1,1.8,0.3,2.3C28,29.9,28.3,29.9,28.6,29.8z M28.1,28.5L28.1,28.5c-0.1,0.1-0.1,0.1-0.3,0.1
		C27.9,28.6,28,28.6,28.1,28.5z"/>
	<path d="M36.4,30.5c0.3,0,0.6-0.3,0.6-0.6c0-0.4,0-0.8,0-1.2c0-0.3-0.1-0.4-0.3-0.5c0.1-0.2,0.2-0.3,0.3-0.5
		c0.3-0.8-0.9-1.1-1.2-0.3C35.6,28,35,28.3,35,29.1c0,0.4,0.2,0.8,0.5,1.1C35.7,30.4,35.9,30.5,36.4,30.5z"/>
	<path d="M41.5,36.5c0.5,0,1.3,0,1.5-0.6c0.3-0.8-0.5-1.1-1-1.3c-0.5-0.1-0.8,0.3-0.8,0.7C40.7,35.6,40.8,36.5,41.5,36.5z"/>
	<path d="M48.6,37.4c0.4,0.1,0.8-0.2,0.8-0.6c0-0.5-0.3-1-0.3-1.5c-0.1-0.8-1.3-0.8-1.2,0c0,0.2,0.1,0.5,0.1,0.7
		c-0.2-0.1-0.4-0.2-0.5-0.4c-0.3-0.4-0.2-1-0.2-1.5c0-0.8-1.2-0.8-1.2,0c0,0.7,0,1.5,0.3,2.1C46.8,37,47.8,37.3,48.6,37.4z"/>
	<path d="M41.7,30.3c0.2,0.2,0.6,0.7,1,0.6c0.3,0,0.5-0.2,0.6-0.5c0.2-0.5-0.4-1.1-0.7-1.4c-0.5-0.5-1.2,0.1-1,0.6
		C41.5,29.9,41.5,30.1,41.7,30.3z M42.1,30.4C42.2,30.6,42.1,30.5,42.1,30.4L42.1,30.4z"/>
	<path d="M9.9,19c1.7-0.3,2.9-2,1.9-3.5c-0.8-1.3-2.6-2.1-4.1-2.2c-0.6,0-0.8,0.7-0.4,1.1C6.4,15,6,16,6.4,17.1
		C6.9,18.5,8.4,19.2,9.9,19z M9.9,17.6c-1.8,0.7-3.5-1.9-1.4-2.6c0.2-0.1,0.3-0.2,0.3-0.3C10.3,15.4,12,16.8,9.9,17.6z"/>
	<path d="M22.8,12.7c1.2-1.1,1.6-3.1,0.5-4.4s-3.2-1.1-4.5-0.4c-0.4,0.2-0.4,0.6-0.2,0.8l0,0C16.9,11.2,20.5,14.7,22.8,12.7z
		 M22.3,9c0.9,0.6,0.4,2.1-0.2,2.7s-1.5,0.2-2-0.2c-0.7-0.6-0.8-1.4-0.3-2.1c0.1-0.2,0.1-0.4,0.1-0.5C20.6,8.5,21.5,8.5,22.3,9z"/>
	<path d="M10.1,4.9c0.2,1.3,1.1,2.7,2.6,2.4c1.8-0.4,3.3-2.4,3-4.3c-0.3-1.7-1.7-2.7-3.3-3h-0.1c-0.3,0-0.6-0.1-0.9,0
		c-0.6,0-0.8,0.8-0.4,1.1C10.2,2.2,9.9,3.5,10.1,4.9z M14.5,3.1c0.3,1.2-1,2.9-2.3,2.9c-0.8,0-0.9-1.4-0.9-1.9
		c0-1.1,0.4-2.1,1.2-2.8C13.4,1.5,14.2,2.1,14.5,3.1z"/>
</g>
</svg>
