<?xml version="1.0" encoding="utf-8"?>
<!-- Generator: Adobe Illustrator 22.0.1, SVG Export Plug-In . SVG Version: 6.00 Build 0)  -->
<svg version="1.1" id="Layer_1" xmlns="http://www.w3.org/2000/svg" xmlns:xlink="http://www.w3.org/1999/xlink" x="0px" y="0px"
	 viewBox="0 0 81.3 60.2" style="enable-background:new 0 0 81.3 60.2;" xml:space="preserve">
<g>
	<path d="M77,25.6c-0.2-0.1-0.4-0.3-0.6-0.5c-0.1-0.2-0.2-0.4-0.3-0.6c-0.2-0.3-0.5-0.4-0.8-0.2c-3-2.6-5.4-6.2-8.8-8.2
		c-2.5-1.4-5.4-1.9-8.1-2.6c-3.8-1-2-6.7-3.3-9.6c-1-2.3-4.5-3.6-6.7-3.7C31.1-0.9,12.8,3.5,1.3,17.1c-0.2,0.2-0.2,0.4-0.1,0.6H1.1
		c-0.3,0-0.6,0.3-0.6,0.6c0.5,7,0.2,14,0,21c-0.1,4-1,8.8-0.2,12.7c1.3,6.3,8.2,4.1,12.9,3c6.6-1.5,12.3-6.2,19.1-2.3
		c4.5,2.5,7.7,4.2,13,3.6c3.2-0.4,6-1.3,9.3-0.8c2.7,0.4,5.3,2.1,7.8,3.1c5.7,2.3,11.9,1.4,17.9,1.6c0.4,0,0.6-0.3,0.6-0.6
		c0.5-11.1,1.2-22.8-3.8-33C77.3,26.4,77.3,25.8,77,25.6z M49.5,1.6C54,2.4,54.3,6,54.1,9.8c0,0.7-0.2,1.7,0.2,2.4
		c0.9,1.7,1.9,2,3.7,2.5c3.8,1.2,7,1.6,10,4.4c2.2,2,4.1,4.3,6.4,6.2c-12.1-1.2-24.3-1.2-36.4-2.5c-6.2-0.6-12.3-1.6-18.5-2
		c-5.9-0.3-11.4-2.7-17.4-3.1C13.3,5,32.9-1.1,49.5,1.6z M78.7,58.9c-2.2-0.1-4.4,0-6.7,0c-5.6,0-9.5-2-14.5-3.9
		c-3.2-1.2-6-1.3-9.3-0.7c-3.3,0.6-6,1-9.4,0.3c-2.5-0.5-4.8-2.5-7-3.7c-6.4-3.7-13.4,1.5-19.7,3c-2.6,0.6-9.2,2.6-10.5-1.2
		c-1.2-3.4,0-7.9,0-11.5c0-5.1,0.3-10.2,0.3-15.3c0-0.8-0.8-7,0.7-6.9c3.3,0,6.8,1.1,10,1.9c9.4,2.3,19.7,2.8,29.3,3.6
		c11.3,1,22.6,1.1,33.8,2.2c4.2,8.3,4.4,17.7,4.1,26.9C79.9,54.5,80.4,59,78.7,58.9z"/>
	<path d="M21.5,31c-3.5-3-9.6-1.5-13.1,0.5C7.7,31.9,8.3,33,9,32.6c0.4-0.2,0.8-0.4,1.2-0.6c-5,5.8,5.3,13.1,10.8,9.7
		C24.6,39.5,24.4,33.6,21.5,31z M20.4,40.6c-4.2,3.1-13.4-3.3-9.1-7.9c0.3-0.4,0.1-0.9-0.2-1c2.6-1,5.4-1.3,8-0.5
		C23,32.3,23.5,38.2,20.4,40.6z"/>
	<path d="M39.9,39.8c-0.8,0.1-0.8,1.3,0,1.2s1.6-0.1,2.4-0.2c-6.4,2.6,0.1,10.8,5.6,9.4c3.2-0.8,4.8-5.8,2.8-8.4
		C48.4,38.8,43,39.6,39.9,39.8z M47.9,48.9c-3.9,2.1-10.7-5.2-4.6-7.1c0.5-0.2,0.5-0.7,0.3-1c1.4,0,2.9,0.1,4.3,0.5
		C51.4,42.5,50.8,47.4,47.9,48.9z"/>
	<path d="M62.7,33.9c-0.8,0.1-0.8,1.3,0,1.2c0.2,0,0.4,0,0.7,0c-1.4,1.6-1.4,3.7-0.1,5.3c1.2,1.5,3.4,2.8,5.3,2
		c2.2-0.8,2.3-3.8,1.3-5.5C68.5,34.7,65.2,33.8,62.7,33.9z M68.1,41.4c-1.3,0.5-2.8-0.5-3.6-1.4c-1.1-1.2-1.4-2.8-0.2-4
		c0.2-0.2,0.2-0.5,0.1-0.7c1.4,0.2,2.7,0.7,3.8,1.6C69.4,37.9,70.1,40.6,68.1,41.4z"/>
	<path d="M48.4,15.2c1.4-0.1,5,0.5,5.1,2.3c0.1,1.5-1.6,1.8-2.6,1.3c-0.8-0.4-2-1.6-1.8-2.7c0.2-0.8-1-1.1-1.2-0.3
		c-0.8,3.4,4.8,6.4,6.6,2.9c1.7-3.3-3.8-4.9-6.1-4.8C47.6,14,47.6,15.3,48.4,15.2z"/>
	<path d="M27.6,10.8c-0.7,2.2-0.1,4.4,1.8,5.8c1.6,1.2,4,1.3,5.6,0c2.1-1.7,1.4-5.3-0.1-7c-2.2-2.5-6-1.8-8.2,0.3
		C26.2,10.4,27,11.3,27.6,10.8z M34.1,10.5c1.3,1.3,1.6,4.3-0.1,5.4c-1.2,0.8-2.8,0.3-3.9-0.4c-1.6-1.1-1.8-3.1-1.2-4.8
		c0.1-0.4-0.1-0.6-0.3-0.7C30.3,9,32.5,9,34.1,10.5z"/>
	<path d="M41.4,6.5c1.8-0.4,5.2-0.1,4.3,2.5c-0.4,1.1-1.1,2-2.2,1.2c-0.8-0.5-1.3-1.8-0.9-2.6C43,6.9,41.9,6.2,41.5,7
		c-1.4,2.9,2.8,6.8,4.9,3.5c1-1.5,1.1-3.4-0.4-4.6c-1.3-1-3.4-0.9-4.9-0.6C40.2,5.5,40.6,6.7,41.4,6.5z"/>
	<path d="M19.2,11.3c-1.3-0.7-3.1,1-4,1.8c-0.2,0.2-0.2,0.4-0.1,0.6c-0.3,0-0.7,0.1-0.7,0.6c0.1,1.4,0.5,5.3,2.8,4.1
		c0.7-0.4,1.2-1.1,1.6-1.7c0.5-0.8,0.8-1.6,1-2.5S20.2,11.8,19.2,11.3z M18.7,13.2L18.7,13.2c0,0.1,0,0.1,0,0.1
		c0,0.2-0.1,0.4-0.1,0.6c-0.1,0.2-0.1,0.4-0.2,0.6c0,0.1-0.1,0.2-0.1,0.3c0,0,0,0.1-0.1,0.1l0,0c0,0,0,0,0,0.1
		c-0.2,0.4-0.4,0.8-0.6,1.1c-0.3,0.4-0.3,0.5-0.6,0.8c-0.1,0.1-0.1,0.1-0.2,0.2l0,0c0,0,0,0-0.1,0s-0.1,0.1-0.2,0.1l0,0
		c0,0,0,0-0.1,0l0,0l0,0l0,0l0,0l0,0l0,0l0,0c0,0,0,0-0.1,0l0,0l0,0c0-0.1-0.1-0.1-0.1-0.2c-0.1-0.2,0,0-0.1-0.2
		c0-0.1-0.1-0.3-0.1-0.4c-0.2-0.7-0.2-1.4-0.3-2.1c0-0.1,0-0.1,0-0.2c0.2,0,0.4,0,0.5-0.2c0.5-0.4,1-0.9,1.6-1.2
		c0.1-0.1,0.2-0.1,0.3-0.2c0,0,0.1,0,0.1-0.1l0,0l0,0c0.1,0,0.2-0.1,0.2-0.1h0.1l0,0c0,0,0,0,0.1,0l0,0l0,0l0,0l0,0l0,0
		c0,0.1,0,0.1,0,0.2v0.1c0,0.1,0,0.2,0,0.3C18.7,13,18.7,13.1,18.7,13.2z"/>
</g>
</svg>
