<?xml version="1.0" encoding="utf-8"?>
<!-- Generator: Adobe Illustrator 22.0.1, SVG Export Plug-In . SVG Version: 6.00 Build 0)  -->
<svg version="1.1" id="Layer_1" xmlns="http://www.w3.org/2000/svg" xmlns:xlink="http://www.w3.org/1999/xlink" x="0px" y="0px"
	 viewBox="0 0 81.3 69.2" style="enable-background:new 0 0 81.3 69.2;" xml:space="preserve">
<g>
	<path d="M31.1,68.5c13,2.7,30.5-3.2,35.6-16.2c1.9-4.9,1-8.3-1.3-10.7c15.4,2.2,23.8-28.1,5.3-28c-3,0-5.9,0.6-8.9,1.3
		c-5.5-0.2-10.2-3.4-14.5-6.4C43.6,5.9,39.6,2,35.2,0.6c-3.1-1-6.3-1-9,1.1c-2.4,1.8-1.7,4.9-0.9,7.5C19.5,5.7,12.8,4.2,6.9,8
		C-2.2,13.8-2,31.1,5.5,38.1c-0.2,0.4-0.4,0.8-0.6,1.2c-0.1,0.2-0.2,0.4-0.3,0.7c0,0.1-0.1,0.2-0.1,0.2c0,0.1-0.1,0.2,0,0.3
		C3.8,44.3,8.4,50.3,9.9,53C14,60.6,22.6,66.7,31.1,68.5z M80.2,24.9c-0.2,8.4-8,18.1-17,14.9c-0.1,0-0.2,0-0.3,0
		c-4.8-2.8-12.2-3.4-17.3-3.9c-3-0.3-6.1-0.5-9-1.3c-4.5-1.2-8.2-4.3-13-4.8c-0.6-0.1-1.3-0.1-1.9-0.1c1.2-7.6,10.9-8.9,17.2-9.6
		c6.9-0.8,13.7-1.5,20.5-3C67.8,15,80.4,11.7,80.2,24.9z M29.5,1.4c2.4-0.7,5,0.2,7.1,1.3c3.1,1.7,5.9,4,8.8,6c4,2.8,8.3,5.8,13.1,7
		c-1.6,0.4-3.2,0.8-4.7,1.1c-5.7,1.2-11.4,1.4-17.1,2.1c-0.4,0-0.8,0.1-1.2,0.2c0.2-0.2,0.3-0.6,0-0.9c-2.3-2.8-5.3-5.7-8.7-8
		C25.9,6.9,25.5,2.6,29.5,1.4z M8.4,8.4c5.4-3.5,11.9-1.2,17.4,2.6c0.1,0.2,0.3,0.3,0.4,0.3c3.4,2.4,6.4,5.4,8.4,7.9l0.1,0.1
		c-6.3,1-13.4,3.4-14.4,10.4C14.6,30,9.3,32.5,6,37.1C-1.2,29.8-0.2,14,8.4,8.4z M5.6,40.5L5.6,40.5c0.1-0.3,0.3-0.6,0.4-0.9
		c0,0,0-0.1,0.1-0.1c4.5-9.2,15.6-10.1,24.2-6.4c4.3,1.9,7.8,3.2,12.4,3.7c5.4,0.6,14.7,0.5,19.9,3.9c0.1,0.1,0.1,0.1,0.2,0.2
		c2.6,1.8,4.1,4.6,3.3,8.9C63.7,62.9,46.9,68,35.5,67.7C27.2,67.5,20,62.9,14.4,57C12.7,55.2,4.7,44.5,5.6,40.5z"/>
	<path d="M16.7,47.2c-0.4-2.6-0.1-5.2-0.5-7.7c-0.1-0.8-1.3-0.5-1.2,0.3c0.4,2.6,0.1,5.2,0.5,7.7C15.6,48.3,16.8,47.9,16.7,47.2z"/>
	<path d="M35.7,42.8c1.9,0.2,3.9,0.5,5.8,1c0.8,0.2,1.1-1,0.3-1.2c-2-0.5-4-0.8-6.1-1.1C34.9,41.4,34.9,42.7,35.7,42.8z"/>
	<path d="M39.1,60.5c3.4-1.7,7.3-2.3,10.6-4.4c0.7-0.4,0.1-1.5-0.6-1.1c-3.3,2-7.2,2.6-10.6,4.4C37.8,59.8,38.4,60.9,39.1,60.5z"/>
	<path d="M67.9,34.1c1.7-2.2,4.3-3.7,5.5-6.3c0.3-0.7-0.7-1.4-1.1-0.6c-1.2,2.5-3.7,3.9-5.3,6.1C66.5,33.8,67.4,34.7,67.9,34.1z"/>
	<path d="M49.5,21.8c0,2.2,0.5,4.3,0.5,6.4c0,0.8,1.3,0.8,1.2,0c0-2.2-0.5-4.3-0.5-6.4C50.8,21,49.5,21,49.5,21.8z"/>
	<path d="M11.4,24.3c-2.1-0.3-4-1.3-5.8-2.5c-0.7-0.5-1.3,0.6-0.6,1.1c1.8,1.3,3.8,2.3,6.1,2.6C11.8,25.6,12.2,24.4,11.4,24.3z"/>
	<path d="M12.5,16.7c1.4-1.9,2.7-3.9,3.9-5.9c0.4-0.7-0.7-1.3-1.1-0.6c-1.2,2-2.5,4-3.9,5.9C11,16.7,12.1,17.3,12.5,16.7z"/>
	<path d="M33.5,8.7c0.9,0.3,1.8,0.5,2.7,0.5C37,9.2,37,8,36.2,8s-1.6-0.2-2.4-0.5C33,7.3,32.7,8.5,33.5,8.7z"/>
	<path d="M41.1,10.4L41.1,10.4c0.1,0.1,0.1,0.2,0.2,0.2c0.1,0.2,0.3,0.3,0.4,0.5c0.3,0.4,0.5,0.7,0.7,1.1c0.4,0.7,1.5,0.1,1.1-0.6
		c-0.3-0.6-0.7-1.1-1.1-1.6c-0.2-0.2-0.4-0.5-0.6-0.7c-0.3-0.3-0.9,0-1,0.4C40.7,10.1,40.9,10.3,41.1,10.4z M41.2,10.5L41.2,10.5
		L41.2,10.5L41.2,10.5z"/>
</g>
</svg>
